<mxfile host="app.diagrams.net" modified="2022-11-07T13:09:24.796Z" agent="5.0 (Windows)" etag="SISdGHqsK3OIMcbfkHbW" version="20.5.3" type="github">
  <diagram id="3eG7zKUsDtui_dgQF4wh" name="Page-1">
    <mxGraphModel dx="1422" dy="780" grid="1" gridSize="10" guides="1" tooltips="1" connect="1" arrows="1" fold="1" page="1" pageScale="1" pageWidth="827" pageHeight="1169" math="0" shadow="0">
      <root>
        <mxCell id="0" />
        <mxCell id="1" parent="0" />
        <mxCell id="jILCieJqIRGOSkNXWVt1-1" value="" style="ellipse;html=1;shape=startState;fillColor=#000000;strokeColor=#ff0000;" parent="1" vertex="1">
          <mxGeometry x="140" y="100" width="30" height="30" as="geometry" />
        </mxCell>
        <mxCell id="jILCieJqIRGOSkNXWVt1-2" value="" style="edgeStyle=orthogonalEdgeStyle;html=1;verticalAlign=bottom;endArrow=open;endSize=8;strokeColor=#ff0000;rounded=0;" parent="1" source="jILCieJqIRGOSkNXWVt1-1" edge="1">
          <mxGeometry relative="1" as="geometry">
            <mxPoint x="155" y="170" as="targetPoint" />
          </mxGeometry>
        </mxCell>
        <mxCell id="jILCieJqIRGOSkNXWVt1-3" value="configurer la partie" style="rounded=1;whiteSpace=wrap;html=1;" parent="1" vertex="1">
          <mxGeometry x="95" y="180" width="120" height="30" as="geometry" />
        </mxCell>
        <mxCell id="jILCieJqIRGOSkNXWVt1-5" value="" style="endArrow=classic;html=1;rounded=0;" parent="1" edge="1">
          <mxGeometry width="50" height="50" relative="1" as="geometry">
            <mxPoint x="154.23" y="210" as="sourcePoint" />
            <mxPoint x="154.23" y="250" as="targetPoint" />
          </mxGeometry>
        </mxCell>
        <mxCell id="jILCieJqIRGOSkNXWVt1-6" value="" style="endArrow=classic;html=1;rounded=0;" parent="1" edge="1">
          <mxGeometry width="50" height="50" relative="1" as="geometry">
            <mxPoint x="154.23" y="280" as="sourcePoint" />
            <mxPoint x="154.23" y="320" as="targetPoint" />
          </mxGeometry>
        </mxCell>
        <mxCell id="jILCieJqIRGOSkNXWVt1-7" value="cliquer une case" style="rounded=1;whiteSpace=wrap;html=1;" parent="1" vertex="1">
          <mxGeometry x="95" y="250" width="120" height="30" as="geometry" />
        </mxCell>
        <mxCell id="jILCieJqIRGOSkNXWVt1-10" value="" style="rhombus;whiteSpace=wrap;html=1;" parent="1" vertex="1">
          <mxGeometry x="150" y="330" width="10" height="30" as="geometry" />
        </mxCell>
        <mxCell id="jILCieJqIRGOSkNXWVt1-11" value="nature case?" style="text;html=1;strokeColor=none;fillColor=none;align=center;verticalAlign=middle;whiteSpace=wrap;rounded=0;" parent="1" vertex="1">
          <mxGeometry x="50" y="330" width="90" height="30" as="geometry" />
        </mxCell>
        <mxCell id="jILCieJqIRGOSkNXWVt1-12" value="" style="endArrow=classic;html=1;rounded=0;" parent="1" edge="1">
          <mxGeometry width="50" height="50" relative="1" as="geometry">
            <mxPoint x="150" y="370" as="sourcePoint" />
            <mxPoint x="140.00000000000003" y="410" as="targetPoint" />
          </mxGeometry>
        </mxCell>
        <mxCell id="jILCieJqIRGOSkNXWVt1-13" value="" style="endArrow=classic;html=1;rounded=0;" parent="1" edge="1">
          <mxGeometry width="50" height="50" relative="1" as="geometry">
            <mxPoint x="160" y="370" as="sourcePoint" />
            <mxPoint x="170.00000000000003" y="410" as="targetPoint" />
          </mxGeometry>
        </mxCell>
        <mxCell id="jILCieJqIRGOSkNXWVt1-14" value="signalée par un drapeau" style="text;html=1;strokeColor=none;fillColor=none;align=center;verticalAlign=middle;whiteSpace=wrap;rounded=0;" parent="1" vertex="1">
          <mxGeometry x="40" y="380" width="90" height="30" as="geometry" />
        </mxCell>
        <mxCell id="jILCieJqIRGOSkNXWVt1-17" value="Pas minée" style="text;html=1;strokeColor=none;fillColor=none;align=center;verticalAlign=middle;whiteSpace=wrap;rounded=0;" parent="1" vertex="1">
          <mxGeometry x="170" y="370" width="90" height="30" as="geometry" />
        </mxCell>
        <mxCell id="jILCieJqIRGOSkNXWVt1-18" value="Gagner la partie" style="text;html=1;strokeColor=none;fillColor=none;align=center;verticalAlign=middle;whiteSpace=wrap;rounded=0;" parent="1" vertex="1">
          <mxGeometry x="110" y="60" width="90" height="30" as="geometry" />
        </mxCell>
        <mxCell id="jILCieJqIRGOSkNXWVt1-19" value="dévoiler la case" style="rounded=1;whiteSpace=wrap;html=1;" parent="1" vertex="1">
          <mxGeometry x="160" y="420" width="120" height="30" as="geometry" />
        </mxCell>
        <mxCell id="jILCieJqIRGOSkNXWVt1-20" value="" style="endArrow=classic;html=1;rounded=0;" parent="1" edge="1">
          <mxGeometry width="50" height="50" relative="1" as="geometry">
            <mxPoint x="290" y="430" as="sourcePoint" />
            <mxPoint x="400" y="430" as="targetPoint" />
          </mxGeometry>
        </mxCell>
        <mxCell id="jILCieJqIRGOSkNXWVt1-21" value="" style="rhombus;whiteSpace=wrap;html=1;" parent="1" vertex="1">
          <mxGeometry x="414" y="420" width="10" height="30" as="geometry" />
        </mxCell>
        <mxCell id="jILCieJqIRGOSkNXWVt1-28" value="nature &lt;br&gt;voisinage?" style="text;html=1;strokeColor=none;fillColor=none;align=center;verticalAlign=middle;whiteSpace=wrap;rounded=0;" parent="1" vertex="1">
          <mxGeometry x="364" y="380" width="110" height="30" as="geometry" />
        </mxCell>
        <mxCell id="jILCieJqIRGOSkNXWVt1-29" value="" style="endArrow=classic;html=1;rounded=0;" parent="1" edge="1">
          <mxGeometry width="50" height="50" relative="1" as="geometry">
            <mxPoint x="440" y="430" as="sourcePoint" />
            <mxPoint x="510" y="400" as="targetPoint" />
          </mxGeometry>
        </mxCell>
        <mxCell id="jILCieJqIRGOSkNXWVt1-31" value="" style="endArrow=classic;html=1;rounded=0;" parent="1" edge="1">
          <mxGeometry width="50" height="50" relative="1" as="geometry">
            <mxPoint x="440" y="450" as="sourcePoint" />
            <mxPoint x="490" y="490" as="targetPoint" />
          </mxGeometry>
        </mxCell>
        <mxCell id="jILCieJqIRGOSkNXWVt1-32" value="miné" style="text;html=1;strokeColor=none;fillColor=none;align=center;verticalAlign=middle;whiteSpace=wrap;rounded=0;" parent="1" vertex="1">
          <mxGeometry x="424" y="370" width="110" height="30" as="geometry" />
        </mxCell>
        <mxCell id="jILCieJqIRGOSkNXWVt1-33" value="afficher le nombre de mines voisines" style="rounded=1;whiteSpace=wrap;html=1;" parent="1" vertex="1">
          <mxGeometry x="520" y="370" width="120" height="30" as="geometry" />
        </mxCell>
        <mxCell id="jILCieJqIRGOSkNXWVt1-36" value="afficher une case vide" style="rounded=1;whiteSpace=wrap;html=1;" parent="1" vertex="1">
          <mxGeometry x="500" y="470" width="120" height="30" as="geometry" />
        </mxCell>
        <mxCell id="jILCieJqIRGOSkNXWVt1-39" value="ne pas dévoiler la case" style="rounded=1;whiteSpace=wrap;html=1;" parent="1" vertex="1">
          <mxGeometry x="20" y="420" width="120" height="30" as="geometry" />
        </mxCell>
        <mxCell id="jILCieJqIRGOSkNXWVt1-40" value="" style="endArrow=classic;html=1;rounded=0;" parent="1" edge="1">
          <mxGeometry width="50" height="50" relative="1" as="geometry">
            <mxPoint x="559.23" y="500" as="sourcePoint" />
            <mxPoint x="559.23" y="540" as="targetPoint" />
          </mxGeometry>
        </mxCell>
        <mxCell id="jILCieJqIRGOSkNXWVt1-41" value="Dévoiler les cases voisines" style="rounded=1;whiteSpace=wrap;html=1;" parent="1" vertex="1">
          <mxGeometry x="500" y="550" width="120" height="30" as="geometry" />
        </mxCell>
        <mxCell id="jILCieJqIRGOSkNXWVt1-42" value="" style="endArrow=classic;html=1;rounded=0;entryX=0.25;entryY=0;entryDx=0;entryDy=0;exitX=0.5;exitY=1;exitDx=0;exitDy=0;" parent="1" source="jILCieJqIRGOSkNXWVt1-41" edge="1">
          <mxGeometry width="50" height="50" relative="1" as="geometry">
            <mxPoint x="589.2299999999998" y="570" as="sourcePoint" />
            <mxPoint x="421.5000000000002" y="460" as="targetPoint" />
            <Array as="points">
              <mxPoint x="560" y="610" />
              <mxPoint x="420" y="610" />
            </Array>
          </mxGeometry>
        </mxCell>
        <mxCell id="jILCieJqIRGOSkNXWVt1-43" value="pas miné" style="text;html=1;strokeColor=none;fillColor=none;align=center;verticalAlign=middle;whiteSpace=wrap;rounded=0;" parent="1" vertex="1">
          <mxGeometry x="430" y="440" width="110" height="30" as="geometry" />
        </mxCell>
        <mxCell id="jILCieJqIRGOSkNXWVt1-53" value="Partie" style="swimlane;fontStyle=1;align=center;verticalAlign=top;childLayout=stackLayout;horizontal=1;startSize=26;horizontalStack=0;resizeParent=1;resizeParentMax=0;resizeLast=0;collapsible=1;marginBottom=0;" parent="1" vertex="1">
          <mxGeometry x="640" y="770" width="160" height="86" as="geometry" />
        </mxCell>
        <mxCell id="jILCieJqIRGOSkNXWVt1-54" value="+ état: str" style="text;strokeColor=none;fillColor=none;align=left;verticalAlign=top;spacingLeft=4;spacingRight=4;overflow=hidden;rotatable=0;points=[[0,0.5],[1,0.5]];portConstraint=eastwest;" parent="jILCieJqIRGOSkNXWVt1-53" vertex="1">
          <mxGeometry y="26" width="160" height="26" as="geometry" />
        </mxCell>
        <mxCell id="jILCieJqIRGOSkNXWVt1-55" value="" style="line;strokeWidth=1;fillColor=none;align=left;verticalAlign=middle;spacingTop=-1;spacingLeft=3;spacingRight=3;rotatable=0;labelPosition=right;points=[];portConstraint=eastwest;strokeColor=inherit;" parent="jILCieJqIRGOSkNXWVt1-53" vertex="1">
          <mxGeometry y="52" width="160" height="8" as="geometry" />
        </mxCell>
        <mxCell id="jILCieJqIRGOSkNXWVt1-56" value="+ method(type): type" style="text;strokeColor=none;fillColor=none;align=left;verticalAlign=top;spacingLeft=4;spacingRight=4;overflow=hidden;rotatable=0;points=[[0,0.5],[1,0.5]];portConstraint=eastwest;" parent="jILCieJqIRGOSkNXWVt1-53" vertex="1">
          <mxGeometry y="60" width="160" height="26" as="geometry" />
        </mxCell>
        <mxCell id="jILCieJqIRGOSkNXWVt1-57" value="Case" style="swimlane;fontStyle=1;align=center;verticalAlign=top;childLayout=stackLayout;horizontal=1;startSize=26;horizontalStack=0;resizeParent=1;resizeParentMax=0;resizeLast=0;collapsible=1;marginBottom=0;" parent="1" vertex="1">
          <mxGeometry x="95" y="840" width="160" height="144" as="geometry" />
        </mxCell>
        <mxCell id="jILCieJqIRGOSkNXWVt1-58" value="+ position: tuple&#xa;+ mine: bool&#xa;+ drapeau: bool &#xa;+ dévoilée: bool&#xa;+ voisin:  &#xa;" style="text;strokeColor=none;fillColor=none;align=left;verticalAlign=top;spacingLeft=4;spacingRight=4;overflow=hidden;rotatable=0;points=[[0,0.5],[1,0.5]];portConstraint=eastwest;fontColor=#000000;" parent="jILCieJqIRGOSkNXWVt1-57" vertex="1">
          <mxGeometry y="26" width="160" height="84" as="geometry" />
        </mxCell>
        <mxCell id="jILCieJqIRGOSkNXWVt1-59" value="" style="line;strokeWidth=1;fillColor=none;align=left;verticalAlign=middle;spacingTop=-1;spacingLeft=3;spacingRight=3;rotatable=0;labelPosition=right;points=[];portConstraint=eastwest;strokeColor=inherit;" parent="jILCieJqIRGOSkNXWVt1-57" vertex="1">
          <mxGeometry y="110" width="160" height="8" as="geometry" />
        </mxCell>
        <mxCell id="jILCieJqIRGOSkNXWVt1-60" value="+ method(type): type" style="text;strokeColor=none;fillColor=none;align=left;verticalAlign=top;spacingLeft=4;spacingRight=4;overflow=hidden;rotatable=0;points=[[0,0.5],[1,0.5]];portConstraint=eastwest;" parent="jILCieJqIRGOSkNXWVt1-57" vertex="1">
          <mxGeometry y="118" width="160" height="26" as="geometry" />
        </mxCell>
        <mxCell id="jILCieJqIRGOSkNXWVt1-61" value="Grille" style="swimlane;fontStyle=1;align=center;verticalAlign=top;childLayout=stackLayout;horizontal=1;startSize=26;horizontalStack=0;resizeParent=1;resizeParentMax=0;resizeLast=0;collapsible=1;marginBottom=0;" parent="1" vertex="1">
          <mxGeometry x="390" y="770" width="160" height="224" as="geometry" />
        </mxCell>
        <mxCell id="jILCieJqIRGOSkNXWVt1-62" value="+ lignes: int&#xa;+ colonnes: int&#xa;+ n_mines: int&#xa;+ &#xa;" style="text;strokeColor=none;fillColor=none;align=left;verticalAlign=top;spacingLeft=4;spacingRight=4;overflow=hidden;rotatable=0;points=[[0,0.5],[1,0.5]];portConstraint=eastwest;" parent="jILCieJqIRGOSkNXWVt1-61" vertex="1">
          <mxGeometry y="26" width="160" height="164" as="geometry" />
        </mxCell>
        <mxCell id="jILCieJqIRGOSkNXWVt1-63" value="" style="line;strokeWidth=1;fillColor=none;align=left;verticalAlign=middle;spacingTop=-1;spacingLeft=3;spacingRight=3;rotatable=0;labelPosition=right;points=[];portConstraint=eastwest;strokeColor=inherit;" parent="jILCieJqIRGOSkNXWVt1-61" vertex="1">
          <mxGeometry y="190" width="160" height="8" as="geometry" />
        </mxCell>
        <mxCell id="jILCieJqIRGOSkNXWVt1-64" value="+ initi(type): type" style="text;strokeColor=none;fillColor=none;align=left;verticalAlign=top;spacingLeft=4;spacingRight=4;overflow=hidden;rotatable=0;points=[[0,0.5],[1,0.5]];portConstraint=eastwest;" parent="jILCieJqIRGOSkNXWVt1-61" vertex="1">
          <mxGeometry y="198" width="160" height="26" as="geometry" />
        </mxCell>
        <mxCell id="IklUny5gVME-0KWLv1HB-1" value="" style="endArrow=diamondThin;endFill=1;endSize=24;html=1;rounded=0;exitX=1;exitY=0.5;exitDx=0;exitDy=0;entryX=0.925;entryY=1.1;entryDx=0;entryDy=0;entryPerimeter=0;" edge="1" parent="1" source="jILCieJqIRGOSkNXWVt1-57" target="IklUny5gVME-0KWLv1HB-3">
          <mxGeometry width="160" relative="1" as="geometry">
            <mxPoint x="330" y="760" as="sourcePoint" />
            <mxPoint x="430" y="910" as="targetPoint" />
          </mxGeometry>
        </mxCell>
        <mxCell id="IklUny5gVME-0KWLv1HB-2" value="1" style="text;html=1;align=center;verticalAlign=middle;resizable=0;points=[];autosize=1;strokeColor=none;fillColor=none;" vertex="1" parent="1">
          <mxGeometry x="255" y="885" width="30" height="30" as="geometry" />
        </mxCell>
        <mxCell id="IklUny5gVME-0KWLv1HB-3" value="1..n" style="text;html=1;align=center;verticalAlign=middle;resizable=0;points=[];autosize=1;strokeColor=none;fillColor=none;" vertex="1" parent="1">
          <mxGeometry x="350" y="880" width="40" height="30" as="geometry" />
        </mxCell>
      </root>
    </mxGraphModel>
  </diagram>
</mxfile>
